<?xml version="1.0" encoding="utf-8"?>
<?xml-stylesheet type="text/xsl" href="rss1.xsl"?>
<rss version="2.0" xmlns:atom="http://www.w3.org/2005/Atom" xmlns:content="http://purl.org/rss/1.0/modules/content/" xmlns:dc="http://purl.org/dc/elements/1.1/" xmlns:media="http://search.yahoo.com/mrss/">
<channel>
 <title>Getty</title>
 <link>http://www.gettyimg.com/</link>
 <atom:link href="http://www.gettyimg.com/" rel="self" type="application/rss+xml" />

 
                <item>
                <title><![CDATA[【SD】Captain Hollywood Project - More And More (1992, TV-Rip, Dancefloor)]]></title>
                <link><![CDATA[https://sharemania.us/threads/captain-hollywood-project-more-and-more-1992-tv-rip-dancefloor.249490/]]></link>
                <description><![CDATA[<article>
<blockquote class="messageText SelectQuoteContainer ugc baseHtml">
Captain Hollywood Project - More And More (1992, TV-Rip, Dancefloor)<br>
<br>
<img src="https://images2.imgbox.com/61/ba/uk9Ys9WW_o.jpg" class="bbCodeImage LbImage" alt="[​IMG]" data-url="https://images2.imgbox.com/61/ba/uk9Ys9WW_o.jpg" style=""> <br>
<br>
<span data-s9e-mediaembed="youtube" style="display:inline-block;width:100%;max-width:640px"><span style="display:block;overflow:hidden;position:relative;padding-bottom:56.25%"><iframe allowfullscreen="" loading="lazy" scrolling="no" style="background:url(https://i.ytimg.com/vi/V-rS174AUT0/hqdefault.jpg) 50% 50% / cover;border:0;height:100%;left:0;position:absolute;width:100%" src="https://www.youtube.com/embed/V-rS174AUT0"></iframe></span></span><br>
<br>
<div class="bbCodeBlock bbCodeVfcHH HiddenContent">
<div class="attribution type">Hidden Content:</div>
<blockquote>You must reply before you can see the hidden data contained here.</blockquote>
</div>Greets, 3rsin.
<div class="messageTextEndMarker">&nbsp;</div>
</blockquote>
</article>]]></description>
                <author><![CDATA[fritching]]></author>
                </item>

                
                <item>
                <title><![CDATA[【Apple Music】WEB-RiP - le Shuuk - kunterbunt (1080p)]]></title>
                <link><![CDATA[https://sharemania.us/threads/le-shuuk-kunterbunt-1080p.249488/]]></link>
                <description><![CDATA[<article>
<blockquote class="messageText SelectQuoteContainer ugc baseHtml">
<img src="https://i.postimg.cc/3r6SsZJj/le-Shuuk-kunterbunt-mp4.jpg" class="bbCodeImage LbImage" alt="[​IMG]" data-url="https://i.postimg.cc/3r6SsZJj/le-Shuuk-kunterbunt-mp4.jpg" style=""><br>
<br>
<div class="bbCodeBlock bbCodeCode">
<div class="type">Code:</div>
<pre>General
Complete name                  : G:\Новая папка\le Shuuk - kunterbunt.mp4
Format                         : MPEG-4
Format profile                 : Base Media
Codec ID                       : isom (isom/iso2/avc1/mp41)
File size                      : 277 MiB
Duration                       : 3 min 52 s
Overall bit rate               : 9 994 kb/s
Frame rate                     : 25.000 FPS
Movie name                     : kunterbunt
Performer                      : le Shuuk
Genre                          : Dance
ContentType                    : Music Video
Recorded date                  : 2003-04-28 07:00:00 UTC
Writing application            : Lavf56.30.100
Copyright                      : ℗ 2021 Kontor Records GmbH

Video
ID                             : 1
Format                         : AVC
Format/Info                    : Advanced Video Codec
Format profile                 : High@L4
Format settings                : CABAC / 5 Ref Frames
Format settings, CABAC         : Yes
Format settings, Reference fra : 5 frames
Format settings, Slice count   : 8 slices per frame
Codec ID                       : avc1
Codec ID/Info                  : Advanced Video Coding
Duration                       : 3 min 52 s
Bit rate                       : 9 734 kb/s
Width                          : 1 920 pixels
Height                         : 822 pixels
Display aspect ratio           : 2.35:1
Frame rate mode                : Constant
Frame rate                     : 25.000 FPS
Color space                    : YUV
Chroma subsampling             : 4:2:0
Bit depth                      : 8 bits
Scan type                      : Progressive
Bits/(Pixel*Frame)             : 0.247
Stream size                    : 270 MiB (97%)
Color range                    : Limited
Color primaries                : BT.709
Transfer characteristics       : BT.709
Matrix coefficients            : BT.709
Codec configuration box        : avcC

Audio
ID                             : 2
Format                         : AAC LC
Format/Info                    : Advanced Audio Codec Low Complexity
Codec ID                       : mp4a-40-2
Duration                       : 3 min 52 s
Duration_LastFrame             : -7 ms
Bit rate mode                  : Constant
Bit rate                       : 255 kb/s
Channel(s)                     : 2 channels
Channel layout                 : L R
Sampling rate                  : 48.0 kHz
Frame rate                     : 46.875 FPS (1024 SPF)
Compression mode               : Lossy
Stream size                    : 7.08 MiB (3%)
Default                        : Yes
Alternate group                : 1

</pre>
</div>
<div class="bbCodeBlock bbCodeVfcHH HiddenContent">
<div class="attribution type">Hidden Content:</div>
<blockquote>You must either reply or click 'Like' to see the hidden information contained here.</blockquote>
</div>
<div class="messageTextEndMarker">&nbsp;</div>
</blockquote>
</article>]]></description>
                <author><![CDATA[vitalya3]]></author>
                </item>

                
                <item>
                <title><![CDATA[【Apple Music】WEB-RiP - Andrew Rayel - Silver Lining (1080p)]]></title>
                <link><![CDATA[https://sharemania.us/threads/andrew-rayel-silver-lining-1080p.249486/]]></link>
                <description><![CDATA[<article>
<blockquote class="messageText SelectQuoteContainer ugc baseHtml">
<img src="https://i.postimg.cc/GhGQZwfr/Andrew-Rayel-Silver-Lining-mp4.jpg" class="bbCodeImage LbImage" alt="[​IMG]" data-url="https://i.postimg.cc/GhGQZwfr/Andrew-Rayel-Silver-Lining-mp4.jpg" style=""><br>
<br>
<div class="bbCodeBlock bbCodeCode">
<div class="type">Code:</div>
<pre>General
Complete name                  : G:\Новая папка\Andrew Rayel - Silver Lining.mp4
Format                         : MPEG-4
Format profile                 : Base Media
Codec ID                       : isom (isom/iso2/avc1/mp41)
File size                      : 149 MiB
Duration                       : 3 min 0 s
Overall bit rate               : 6 955 kb/s
Frame rate                     : 23.976 FPS
Movie name                     : Silver Lining
Performer                      : Andrew Rayel
Genre                          : Dance
ContentType                    : Music Video
Recorded date                  : 2021-02-05 08:00:00 UTC
Writing application            : Lavf56.30.100
Copyright                      : ℗ 2021 Armada Music B.V.

Video
ID                             : 1
Format                         : AVC
Format/Info                    : Advanced Video Codec
Format profile                 : High@L4
Format settings                : CABAC / 5 Ref Frames
Format settings, CABAC         : Yes
Format settings, Reference fra : 5 frames
Format settings, Slice count   : 8 slices per frame
Codec ID                       : avc1
Codec ID/Info                  : Advanced Video Coding
Duration                       : 3 min 0 s
Bit rate                       : 6 695 kb/s
Width                          : 1 918 pixels
Height                         : 728 pixels
Display aspect ratio           : 2.635
Frame rate mode                : Constant
Frame rate                     : 23.976 (24000/1001) FPS
Color space                    : YUV
Chroma subsampling             : 4:2:0
Bit depth                      : 8 bits
Scan type                      : Progressive
Bits/(Pixel*Frame)             : 0.200
Stream size                    : 144 MiB (96%)
Color range                    : Limited
Color primaries                : BT.709
Transfer characteristics       : BT.709
Matrix coefficients            : BT.709
Codec configuration box        : avcC

Audio
ID                             : 2
Format                         : AAC LC
Format/Info                    : Advanced Audio Codec Low Complexity
Codec ID                       : mp4a-40-2
Duration                       : 3 min 0 s
Duration_LastFrame             : -18 ms
Bit rate mode                  : Constant
Bit rate                       : 255 kb/s
Channel(s)                     : 2 channels
Channel layout                 : L R
Sampling rate                  : 48.0 kHz
Frame rate                     : 46.875 FPS (1024 SPF)
Compression mode               : Lossy
Stream size                    : 5.48 MiB (4%)
Default                        : Yes
Alternate group                : 1

</pre>
</div>
<div class="bbCodeBlock bbCodeVfcHH HiddenContent">
<div class="attribution type">Hidden Content:</div>
<blockquote>You must either reply or click 'Like' to see the hidden information contained here.</blockquote>
</div>
<div class="messageTextEndMarker">&nbsp;</div>
</blockquote>
</article>]]></description>
                <author><![CDATA[vitalya3]]></author>
                </item>

                
                <item>
                <title><![CDATA[【Live Audios (lossless)】FLAC - Gracie Abrams - Good Riddance (Acoustic Live Show)]]></title>
                <link><![CDATA[https://sharemania.us/threads/gracie-abrams-good-riddance-acoustic-live-show.249485/]]></link>
                <description><![CDATA[<article>
<blockquote class="messageText SelectQuoteContainer ugc baseHtml">
<img src="https://images.app.goo.gl/uex8JCSahbm6K1kL7" class="bbCodeImage LbImage" alt="[​IMG]" data-url="https://images.app.goo.gl/uex8JCSahbm6K1kL7" style="">
<div class="bbCodeBlock bbCodeVfcHH HiddenContent">
<div class="attribution type">Hidden Content:</div>
<blockquote>You must reply before you can see the hidden data contained here.</blockquote>
</div>
<div class="messageTextEndMarker">&nbsp;</div>
</blockquote>
</article>]]></description>
                <author><![CDATA[Xoxo360]]></author>
                </item>

                
                <item>
                <title><![CDATA[【Apple Music】WEB-RiP - 89ers - Wilder Than A Hurricane (1080p)]]></title>
                <link><![CDATA[https://sharemania.us/threads/89ers-wilder-than-a-hurricane-1080p.249491/]]></link>
                <description><![CDATA[<article>
<blockquote class="messageText SelectQuoteContainer ugc baseHtml">
<img src="https://i.postimg.cc/8CLgcPt5/89ers-Wilder-Than-A-Hurricane-mp4.jpg" class="bbCodeImage LbImage" alt="[​IMG]" data-url="https://i.postimg.cc/8CLgcPt5/89ers-Wilder-Than-A-Hurricane-mp4.jpg" style=""><br>
<br>
<div class="bbCodeBlock bbCodeCode">
<div class="type">Code:</div>
<pre>General
Complete name                  : G:\Новая папка\89ers - Wilder Than A Hurricane.mp4
Format                         : MPEG-4
Format profile                 : Base Media
Codec ID                       : isom (isom/iso2/avc1/mp41)
File size                      : 181 MiB
Duration                       : 2 min 31 s
Overall bit rate               : 10.0 Mb/s
Frame rate                     : 25.000 FPS
Movie name                     : Wilder Than a Hurricane
Performer                      : 89ers
Genre                          : Dance
ContentType                    : Music Video
Recorded date                  : 2022-11-11 08:00:00 UTC
Writing application            : Lavf56.30.100
Copyright                      : ℗ 2022 Kontor Records GmbH / Drop Out

Video
ID                             : 1
Format                         : AVC
Format/Info                    : Advanced Video Codec
Format profile                 : High@L4
Format settings                : CABAC / 4 Ref Frames
Format settings, CABAC         : Yes
Format settings, Reference fra : 4 frames
Format settings, Slice count   : 8 slices per frame
Codec ID                       : avc1
Codec ID/Info                  : Advanced Video Coding
Duration                       : 2 min 31 s
Bit rate                       : 9 773 kb/s
Width                          : 1 920 pixels
Height                         : 1 080 pixels
Display aspect ratio           : 16:9
Frame rate mode                : Constant
Frame rate                     : 25.000 FPS
Color space                    : YUV
Chroma subsampling             : 4:2:0
Bit depth                      : 8 bits
Scan type                      : Progressive
Bits/(Pixel*Frame)             : 0.189
Stream size                    : 176 MiB (97%)
Color range                    : Limited
Color primaries                : BT.709
Transfer characteristics       : BT.709
Matrix coefficients            : BT.709
Codec configuration box        : avcC

Audio
ID                             : 2
Format                         : AAC LC
Format/Info                    : Advanced Audio Codec Low Complexity
Codec ID                       : mp4a-40-2
Duration                       : 2 min 31 s
Duration_LastFrame             : -12 ms
Bit rate mode                  : Constant
Bit rate                       : 265 kb/s
Channel(s)                     : 2 channels
Channel layout                 : L R
Sampling rate                  : 48.0 kHz
Frame rate                     : 46.875 FPS (1024 SPF)
Compression mode               : Lossy
Stream size                    : 4.69 MiB (3%)
Default                        : Yes
Alternate group                : 1

</pre>
</div>
<div class="bbCodeBlock bbCodeVfcHH HiddenContent">
<div class="attribution type">Hidden Content:</div>
<blockquote>You must either reply or click 'Like' to see the hidden information contained here.</blockquote>
</div>
<div class="messageTextEndMarker">&nbsp;</div>
</blockquote>
</article>]]></description>
                <author><![CDATA[vitalya3]]></author>
                </item>

                
                <item>
                <title><![CDATA[【Albums (lossless)】FLAC - Alicia Keys - Remixed &amp; Unplugged In A Minor (2002)]]></title>
                <link><![CDATA[https://sharemania.us/threads/alicia-keys-remixed-unplugged-in-a-minor-2002.249477/]]></link>
                <description><![CDATA[<article>
<blockquote class="messageText SelectQuoteContainer ugc baseHtml">
<b><span style="font-size: 18px"><span style="color: #0000b3"><img src="https://i.discogs.com/SukXFtNMNntCN7C5QcPhIIMf-YlLQtXPMznO_NuKVwc/rs:fit/g:sm/q:90/h:600/w:600/czM6Ly9kaXNjb2dz/LWRhdGFiYXNlLWlt/YWdlcy9SLTEwMzYx/MDU5LTE2MDg2MzE0/MTgtMTg3OC5qcGVn.jpeg" class="bbCodeImage LbImage" alt="[​IMG]" data-url="https://i.discogs.com/SukXFtNMNntCN7C5QcPhIIMf-YlLQtXPMznO_NuKVwc/rs:fit/g:sm/q:90/h:600/w:600/czM6Ly9kaXNjb2dz/LWRhdGFiYXNlLWlt/YWdlcy9SLTEwMzYx/MDU5LTE2MDg2MzE0/MTgtMTg3OC5qcGVn.jpeg" style=""> </span></span><br>
<span style="font-size: 22px"><span style="color: #0000b3">Remixed</span></span></b><br>
<span style="color: #4d4dff"><i> Girlfriend (KrucialKeys Sista Girl Mix) 3:28 </i><br>
<i> Gangsta Lovin' 3:59 </i><br>
<i> Fallin' (Remix) 3:56 </i><br>
<i> A Woman's Worth (Remix) 3:20 </i><br>
<i> Butterflyz (Roger's Release Mix) 3:54 </i><br>
<i> Troubles (J-Jay &amp; Chris Lum Bootleg Mix) 4:23 </i><br>
<i> How Come You Don't Call Me (Neptunes Remix) 4:23 </i><br>
<i> Fallin' (Ali Version) 4:30 </i></span><br>
<b><span style="font-size: 22px"><span style="color: #4d4dff"> Unplugged </span></span></b><br>
<span style="font-size: 15px"><span style="color: #99ccff"><i> Moonlight Sonata/L'Interludio, Ambivalente/Ain't Misbehavin' 2:22 </i><br>
<i> Goodbye 2:49 </i><br>
<i> Never Felt This Way 1:45 </i><br>
<i> Butterflyz 0:52 </i><br>
<i> Caged Bird 2:02 </i><br>
<i> I Got A Little Something For You 1:45 </i><br>
<i> Someday We'll All Be Free 6:24 </i></span><br>
<i>
<div class="bbCodeBlock bbCodeVfcHH HiddenContent">
<div class="attribution type">Hidden Content:</div>
<blockquote>You must reply before you can see the hidden data contained here.</blockquote>
</div></i></span>
<div class="messageTextEndMarker">&nbsp;</div>
</blockquote>
</article>]]></description>
                <author><![CDATA[rominuchiis]]></author>
                </item>

                
                <item>
                <title><![CDATA[【SD】Captain Hollywood Project - Only With You (1993, TV-Rip, Dancefloor)]]></title>
                <link><![CDATA[https://sharemania.us/threads/captain-hollywood-project-only-with-you-1993-tv-rip-dancefloor.249492/]]></link>
                <description><![CDATA[<article>
<blockquote class="messageText SelectQuoteContainer ugc baseHtml">
yesss
<div class="messageTextEndMarker">&nbsp;</div>
</blockquote>
</article>]]></description>
                <author><![CDATA[fritching]]></author>
                </item>

                
                <item>
                <title><![CDATA[【Requests】[REQ AUD] - Xscape - Traces of my lipstick (japan bonus)]]></title>
                <link><![CDATA[https://sharemania.us/threads/xscape-traces-of-my-lipstick-japan-bonus.249487/]]></link>
                <description><![CDATA[<article>
<blockquote class="messageText SelectQuoteContainer ugc baseHtml">
Captain Hollywood Project - Only With You (1993, TV-Rip, Dancefloor)<br>
<br>
<img src="https://images2.imgbox.com/63/98/j5493X8c_o.jpg" class="bbCodeImage LbImage" alt="[​IMG]" data-url="https://images2.imgbox.com/63/98/j5493X8c_o.jpg" style=""> <br>
<br>
<span data-s9e-mediaembed="youtube" style="display:inline-block;width:100%;max-width:640px"><span style="display:block;overflow:hidden;position:relative;padding-bottom:56.25%"><iframe allowfullscreen="" loading="lazy" scrolling="no" style="background:url(https://i.ytimg.com/vi/_vkVXbtqLpI/hqdefault.jpg) 50% 50% / cover;border:0;height:100%;left:0;position:absolute;width:100%" src="https://www.youtube.com/embed/_vkVXbtqLpI"></iframe></span></span><br>
<br>
<div class="bbCodeBlock bbCodeVfcHH HiddenContent">
<div class="attribution type">Hidden Content:</div>
<blockquote>You must reply before you can see the hidden data contained here.</blockquote>
</div>Greets, 3rsin.
<div class="messageTextEndMarker">&nbsp;</div>
</blockquote>
</article>]]></description>
                <author><![CDATA[LanaL]]></author>
                </item>

                
                <item>
                <title><![CDATA[【Apple Music】WEB-RiP - Fabian Farell, Merlin &amp; Justin Prince - Say Goodbye (1080p)]]></title>
                <link><![CDATA[https://sharemania.us/threads/fabian-farell-merlin-justin-prince-say-goodbye-1080p.249484/]]></link>
                <description><![CDATA[<article>
<blockquote class="messageText SelectQuoteContainer ugc baseHtml">
Hi guys, does anyone have the JPN edition with 'Best Of My Love' bonus track in HQ please? <br>
<br>
Thanks
<div class="messageTextEndMarker">&nbsp;</div>
</blockquote>
</article>]]></description>
                <author><![CDATA[vitalya3]]></author>
                </item>

                
                <item>
                <title><![CDATA[【Apple Music】WEB-RiP - le Shuuk - Goodbye (feat. Xillions) (1080p)]]></title>
                <link><![CDATA[https://sharemania.us/threads/le-shuuk-goodbye-feat-xillions-1080p.249489/]]></link>
                <description><![CDATA[<article>
<blockquote class="messageText SelectQuoteContainer ugc baseHtml">
<img src="https://i.postimg.cc/6qR350s2/Fabian-Farell-Merlin-Justin-Prince-Say-Goodbye-mp4.jpg" class="bbCodeImage LbImage" alt="[​IMG]" data-url="https://i.postimg.cc/6qR350s2/Fabian-Farell-Merlin-Justin-Prince-Say-Goodbye-mp4.jpg" style=""><br>
<br>
<div class="bbCodeBlock bbCodeCode">
<div class="type">Code:</div>
<pre>General
Complete name                  : G:\Новая папка\Fabian Farell, Merlin &amp; Justin Prince - Say Goodbye.mp4
Format                         : MPEG-4
Format profile                 : Base Media
Codec ID                       : isom (isom/iso2/avc1/mp41)
File size                      : 179 MiB
Duration                       : 2 min 28 s
Overall bit rate               : 10.1 Mb/s
Frame rate                     : 25.000 FPS
Movie name                     : Say Goodbye
Performer                      : Fabian Farell, Merlin &amp; Justin Prince
Genre                          : Dance
ContentType                    : Music Video
Recorded date                  : 2022-09-28 07:00:00 UTC
Writing application            : Lavf56.30.100
Copyright                      : ℗ 2022 Kontor Records GmbH

Video
ID                             : 1
Format                         : AVC
Format/Info                    : Advanced Video Codec
Format profile                 : High@L4
Format settings                : CABAC / 4 Ref Frames
Format settings, CABAC         : Yes
Format settings, Reference fra : 4 frames
Format settings, Slice count   : 8 slices per frame
Codec ID                       : avc1
Codec ID/Info                  : Advanced Video Coding
Duration                       : 2 min 28 s
Bit rate                       : 9 840 kb/s
Width                          : 1 920 pixels
Height                         : 1 080 pixels
Display aspect ratio           : 16:9
Frame rate mode                : Constant
Frame rate                     : 25.000 FPS
Color space                    : YUV
Chroma subsampling             : 4:2:0
Bit depth                      : 8 bits
Scan type                      : Progressive
Bits/(Pixel*Frame)             : 0.190
Stream size                    : 175 MiB (97%)
Color range                    : Limited
Color primaries                : BT.709
Transfer characteristics       : BT.709
Matrix coefficients            : BT.709
Codec configuration box        : avcC

Audio
ID                             : 2
Format                         : AAC LC
Format/Info                    : Advanced Audio Codec Low Complexity
Codec ID                       : mp4a-40-2
Duration                       : 2 min 28 s
Duration_LastFrame             : -20 ms
Bit rate mode                  : Constant
Bit rate                       : 265 kb/s
Channel(s)                     : 2 channels
Channel layout                 : L R
Sampling rate                  : 48.0 kHz
Frame rate                     : 46.875 FPS (1024 SPF)
Compression mode               : Lossy
Stream size                    : 4.64 MiB (3%)
Default                        : Yes
Alternate group                : 1

</pre>
</div>
<div class="bbCodeBlock bbCodeVfcHH HiddenContent">
<div class="attribution type">Hidden Content:</div>
<blockquote>You must either reply or click 'Like' to see the hidden information contained here.</blockquote>
</div>
<div class="messageTextEndMarker">&nbsp;</div>
</blockquote>
</article>]]></description>
                <author><![CDATA[vitalya3]]></author>
                </item>

                </channel></rss>